<svg width="201" height="128" viewBox="0 0 201 128" fill="none" xmlns="http://www.w3.org/2000/svg">
<path d="M214.031 54.0049C210.361 50.1815 203.478 49.3148 196.545 49.2129C189.612 49.3148 182.73 50.1815 179.06 54.0049C175.236 57.6754 174.37 64.5575 174.268 71.4907C174.37 78.4238 175.236 85.306 179.06 88.9764C182.73 92.7999 189.612 93.6665 196.545 93.7684C203.478 93.6665 210.361 92.7999 214.031 88.9764C217.855 85.306 218.721 78.4238 218.823 71.4907C218.721 64.5575 217.855 57.6244 214.031 54.0049Z" fill="#fff"/>
<path d="M98.1854 111.726C94.5149 107.902 87.6328 107.036 80.6997 106.934C73.7665 107.036 66.8844 107.902 63.2139 111.726C59.3905 115.396 58.5238 122.278 58.4219 129.211C58.5238 136.144 59.3905 143.027 63.2139 146.697C66.8844 150.521 73.7665 151.387 80.6997 151.489C87.6328 151.387 94.5149 150.521 98.1854 146.697C102.009 143.027 102.875 136.144 102.977 129.211C102.875 122.278 102.009 115.345 98.1854 111.726Z" fill="#fff"/>
<path d="M214.031 111.927C210.361 108.104 203.478 107.237 196.545 107.135C189.612 107.237 182.73 108.104 179.06 111.927C175.236 115.598 174.37 122.48 174.268 129.413C174.37 136.346 175.236 143.228 179.06 146.899C182.73 150.722 189.612 151.589 196.545 151.691C203.478 151.589 210.361 150.722 214.031 146.899C217.855 143.228 218.721 136.346 218.823 129.413C218.721 122.48 217.855 115.547 214.031 111.927Z" fill="#fff"/>
<path d="M156.133 111.927C152.462 108.104 145.58 107.237 138.647 107.135C131.714 107.237 124.832 108.104 121.161 111.927C117.338 115.598 116.471 122.48 116.369 129.413C116.471 136.346 117.338 143.228 121.161 146.899C124.832 150.722 131.714 151.589 138.647 151.691C145.58 151.589 152.462 150.722 156.133 146.899C159.956 143.228 160.823 136.346 160.925 129.413C160.823 122.48 159.956 115.547 156.133 111.927Z" fill="#fff"/>
</svg>
