<svg width="360" height="344" viewBox="0 0 360 344" fill="none" xmlns="http://www.w3.org/2000/svg">
<path d="M383.396 96.9664C376.805 90.1014 364.449 88.5454 352 88.3623C339.552 88.5454 327.194 90.1014 320.604 96.9664C313.739 103.557 312.183 115.914 312 128.362C312.183 140.811 313.739 153.168 320.604 159.758C327.194 166.623 339.552 168.179 352 168.362C364.449 168.179 376.805 166.623 383.396 159.758C390.261 153.168 391.817 140.811 392 128.362C391.817 115.914 390.261 103.465 383.396 96.9664Z" fill="#fff"/>
<path d="M175.396 200.604C168.805 193.739 156.449 192.183 144 192C131.552 192.183 119.194 193.739 112.604 200.604C105.739 207.195 104.183 219.551 104 232C104.183 244.449 105.739 256.805 112.604 263.396C119.194 270.261 131.552 271.817 144 272C156.449 271.817 168.805 270.261 175.396 263.396C182.261 256.805 183.817 244.449 184 232C183.817 219.551 182.261 207.103 175.396 200.604Z" fill="#fff"/>
<path d="M383.396 200.966C376.805 194.101 364.449 192.545 352 192.362C339.552 192.545 327.194 194.101 320.604 200.966C313.739 207.557 312.183 219.914 312 232.362C312.183 244.811 313.739 257.168 320.604 263.758C327.194 270.623 339.552 272.179 352 272.362C364.449 272.179 376.805 270.623 383.396 263.758C390.261 257.168 391.817 244.811 392 232.362C391.817 219.914 390.261 207.465 383.396 200.966Z" fill="#fff"/>
<path d="M279.439 200.966C272.848 194.101 260.492 192.545 248.043 192.362C235.594 192.545 223.237 194.101 216.647 200.966C209.782 207.557 208.226 219.914 208.043 232.362C208.226 244.811 209.782 257.168 216.647 263.758C223.237 270.623 235.594 272.179 248.043 272.362C260.492 272.179 272.848 270.623 279.439 263.758C286.304 257.168 287.86 244.811 288.043 232.362C287.86 219.914 286.304 207.465 279.439 200.966Z" fill="#fff"/>
<path d="M383.396 304.966C376.805 298.101 364.449 296.545 352 296.362C339.552 296.545 327.194 298.101 320.604 304.966C313.739 311.557 312.183 323.914 312 336.362C312.183 348.811 313.739 361.168 320.604 367.758C327.194 374.623 339.552 376.179 352 376.362C364.449 376.179 376.805 374.623 383.396 367.758C390.261 361.168 391.817 348.811 392 336.362C391.817 323.914 390.261 311.465 383.396 304.966Z" fill="#fff"/>
<path opacity="0.9" d="M175.439 304.966C168.848 298.101 156.492 296.545 144.043 296.362C131.594 296.545 119.237 298.101 112.647 304.966C105.782 311.557 104.226 323.914 104.043 336.362C104.226 348.811 105.782 361.168 112.647 367.758C119.237 374.623 131.594 376.179 144.043 376.362C156.492 376.179 168.848 374.623 175.439 367.758C182.304 361.168 183.86 348.811 184.043 336.362C183.86 323.914 182.304 311.465 175.439 304.966Z" fill="#fff"/>
<path d="M279.439 304.966C272.848 298.101 260.492 296.545 248.043 296.362C235.594 296.545 223.237 298.101 216.647 304.966C209.782 311.557 208.226 323.914 208.043 336.362C208.226 348.811 209.782 361.168 216.647 367.758C223.237 374.623 235.594 376.179 248.043 376.362C260.492 376.179 272.848 374.623 279.439 367.758C286.304 361.168 287.86 348.811 288.043 336.362C287.86 323.914 286.304 311.465 279.439 304.966Z" fill="#fff"/>
<path d="M71.4838 304.966C64.8934 298.101 52.5364 296.545 40.0879 296.362C27.6394 296.545 15.2824 298.101 8.69198 304.966C1.82699 311.557 0.270957 323.914 0.0878906 336.362C0.270957 348.811 1.82699 361.168 8.69198 367.758C15.2824 374.623 27.6394 376.179 40.0879 376.362C52.5364 376.179 64.8934 374.623 71.4838 367.758C78.3488 361.168 79.9048 348.811 80.0879 336.362C79.9048 323.914 78.3488 311.465 71.4838 304.966Z" fill="#fff"/>
</svg>
